<svg width="32" height="32" viewBox="0 0 18 25" fill="none" xmlns="http://www.w3.org/2000/svg">
<path d="M8.67138 24.32C7.13538 24.32 5.75938 23.9467 4.54338 23.2C3.34871 22.432 2.39938 21.3973 1.69538 20.096C0.991375 18.7733 0.639375 17.2693 0.639375 15.584C0.639375 13.8987 0.980708 12.4053 1.66338 11.104C2.36738 9.78133 3.31671 8.74667 4.51138 8C5.70604 7.232 7.06071 6.848 8.57538 6.848C9.40738 6.848 10.2074 6.98667 10.9754 7.264C11.7647 7.52 12.4687 7.88267 13.0874 8.352C13.706 8.8 14.186 9.30133 14.5274 9.856C14.89 10.3893 15.0714 10.9333 15.0714 11.488L14.1114 11.552V0.32H17.4074V24H14.1114V20H14.7514C14.7514 20.512 14.5807 21.024 14.2394 21.536C13.898 22.0267 13.4394 22.4853 12.8634 22.912C12.3087 23.3387 11.658 23.68 10.9114 23.936C10.186 24.192 9.43938 24.32 8.67138 24.32ZM9.11938 21.472C10.122 21.472 11.0074 21.216 11.7754 20.704C12.5434 20.192 13.1407 19.4987 13.5674 18.624C14.0154 17.728 14.2394 16.7147 14.2394 15.584C14.2394 14.4533 14.0154 13.4507 13.5674 12.576C13.1407 11.68 12.5434 10.976 11.7754 10.464C11.0074 9.952 10.122 9.696 9.11938 9.696C8.11671 9.696 7.23138 9.952 6.46338 10.464C5.69538 10.976 5.08738 11.68 4.63938 12.576C4.21271 13.4507 3.99938 14.4533 3.99938 15.584C3.99938 16.7147 4.21271 17.728 4.63938 18.624C5.08738 19.4987 5.69538 20.192 6.46338 20.704C7.23138 21.216 8.11671 21.472 9.11938 21.472Z" fill="#BC947F"/>
</svg>
