<svg width="237" height="252" viewBox="0 0 237 252" fill="none" xmlns="http://www.w3.org/2000/svg">
<g opacity="0.39967">
<mask id="mask0_0_7" style="mask-type:luminance" maskUnits="userSpaceOnUse" x="1" y="88" width="135" height="109">
<path fill-rule="evenodd" clip-rule="evenodd" d="M1.46606 184.055L11.4485 196.293L135.901 95.3058L119.49 88.293L1.46606 184.055Z" fill="white"/>
</mask>
<g mask="url(#mask0_0_7)">
<path fill-rule="evenodd" clip-rule="evenodd" d="M119.88 201.919C119.506 201.473 119.163 200.994 118.752 200.584C76.5674 158.51 34.3787 116.44 -7.80854 74.3674C-8.15005 74.0253 -8.45983 73.6516 -8.7832 73.293H-0.639826C-0.304359 73.7028 -0.00062561 74.1443 0.372619 74.515C36.2676 110.318 72.1716 146.111 108.066 181.913C114.735 188.565 121.372 195.25 128.024 201.919H119.88Z" fill="#231F20"/>
</g>
<mask id="mask1_0_7" style="mask-type:luminance" maskUnits="userSpaceOnUse" x="1" y="88" width="135" height="109">
<path fill-rule="evenodd" clip-rule="evenodd" d="M1.46606 184.055L11.4485 196.293L135.901 95.3058L119.49 88.293L1.46606 184.055Z" fill="white"/>
</mask>
<g mask="url(#mask1_0_7)">
<path fill-rule="evenodd" clip-rule="evenodd" d="M136.167 201.919C135.717 201.396 135.298 200.84 134.81 200.354C92.7407 158.394 50.6653 116.439 8.59293 74.4819C8.21213 74.1021 7.86608 73.6908 7.50342 73.293H15.6468C16.0971 73.8174 16.5172 74.3734 17.0053 74.8601C59.0353 116.782 101.071 158.7 143.104 200.619C143.523 201.036 143.908 201.485 144.31 201.919H136.167Z" fill="#231F20"/>
</g>
<mask id="mask2_0_7" style="mask-type:luminance" maskUnits="userSpaceOnUse" x="1" y="88" width="135" height="109">
<path fill-rule="evenodd" clip-rule="evenodd" d="M1.46606 184.055L11.4485 196.293L135.901 95.3058L119.49 88.293L1.46606 184.055Z" fill="white"/>
</mask>
<g mask="url(#mask2_0_7)">
<path fill-rule="evenodd" clip-rule="evenodd" d="M152.453 201.919C152.041 201.434 151.66 200.917 151.211 200.468C109.065 158.431 66.9125 116.401 24.7631 74.3674C24.4216 74.0268 24.1133 73.6516 23.7899 73.293H31.9333C32.2688 73.7028 32.5725 74.1443 32.9457 74.5165C68.9555 110.434 104.973 146.344 140.981 182.261C147.536 188.797 154.06 195.366 160.597 201.919H152.453Z" fill="#231F20"/>
</g>
<mask id="mask3_0_7" style="mask-type:luminance" maskUnits="userSpaceOnUse" x="1" y="88" width="135" height="109">
<path fill-rule="evenodd" clip-rule="evenodd" d="M1.46606 184.055L11.4485 196.293L135.901 95.3058L119.49 88.293L1.46606 184.055Z" fill="white"/>
</mask>
<g mask="url(#mask3_0_7)">
<path fill-rule="evenodd" clip-rule="evenodd" d="M168.74 201.919C168.327 201.434 167.948 200.916 167.498 200.468C125.391 158.469 83.2761 116.476 41.1659 74.4819C40.7851 74.1021 40.4391 73.6908 40.0764 73.293C42.7904 73.293 45.5058 73.293 48.2198 73.293C48.6701 73.8174 49.0887 74.3734 49.5768 74.8601C91.6068 116.782 133.643 158.7 175.676 200.619C176.095 201.036 176.481 201.485 176.883 201.919H168.74Z" fill="#231F20"/>
</g>
<mask id="mask4_0_7" style="mask-type:luminance" maskUnits="userSpaceOnUse" x="1" y="88" width="135" height="109">
<path fill-rule="evenodd" clip-rule="evenodd" d="M1.46606 184.055L11.4485 196.293L135.901 95.3058L119.49 88.293L1.46606 184.055Z" fill="white"/>
</mask>
<g mask="url(#mask4_0_7)">
<path fill-rule="evenodd" clip-rule="evenodd" d="M185.026 201.919C184.652 201.473 184.309 200.994 183.898 200.584C141.713 158.51 99.5248 116.44 57.3376 74.3674C56.9961 74.0253 56.6863 73.6516 56.3629 73.293H64.5063C64.8418 73.7028 65.1455 74.1428 65.5187 74.515C101.414 110.318 137.318 146.11 173.213 181.913C179.881 188.565 186.518 195.25 193.17 201.919H185.026Z" fill="#231F20"/>
</g>
<mask id="mask5_0_7" style="mask-type:luminance" maskUnits="userSpaceOnUse" x="1" y="88" width="135" height="109">
<path fill-rule="evenodd" clip-rule="evenodd" d="M1.46606 184.055L11.4485 196.293L135.901 95.3058L119.49 88.293L1.46606 184.055Z" fill="white"/>
</mask>
<g mask="url(#mask5_0_7)">
<path fill-rule="evenodd" clip-rule="evenodd" d="M201.313 201.919C200.863 201.396 200.444 200.84 199.956 200.354C157.887 158.394 115.811 116.439 73.739 74.4819C73.3582 74.1021 73.0122 73.6908 72.6495 73.293H80.7929C81.2054 73.7797 81.5862 74.2965 82.0366 74.7456C123.408 116.009 164.782 157.267 206.162 198.52C206.573 198.93 207.054 199.272 207.503 199.645L207.503 201.919H201.313Z" fill="#231F20"/>
</g>
<mask id="mask6_0_7" style="mask-type:luminance" maskUnits="userSpaceOnUse" x="1" y="88" width="135" height="109">
<path fill-rule="evenodd" clip-rule="evenodd" d="M1.46606 184.055L11.4485 196.293L135.901 95.3058L119.49 88.293" fill="white"/>
</mask>
<g mask="url(#mask6_0_7)">
<path fill-rule="evenodd" clip-rule="evenodd" d="M-16.9264 73.2935C-16.4761 73.8163 -16.0575 74.3724 -15.5694 74.8591C26.4606 116.781 68.4967 158.699 110.53 200.619C110.948 201.037 111.335 201.484 111.737 201.92L103.594 201.92C103.219 201.472 102.876 200.993 102.465 200.583C63.0491 161.268 23.6288 121.959 -15.7961 82.654C-16.2464 82.205 -16.7647 81.8252 -17.2528 81.4139C-17.2528 78.917 -17.2604 76.4217 -17.2377 73.9248C-17.2362 73.7139 -17.0352 73.5044 -16.9264 73.2935Z" fill="#231F20"/>
</g>
<mask id="mask7_0_7" style="mask-type:luminance" maskUnits="userSpaceOnUse" x="1" y="88" width="135" height="109">
<path fill-rule="evenodd" clip-rule="evenodd" d="M1.46606 184.055L11.4485 196.293L135.901 95.3058L119.49 88.293L1.46606 184.055Z" fill="white"/>
</mask>
<g mask="url(#mask7_0_7)">
<path fill-rule="evenodd" clip-rule="evenodd" d="M207.502 191.525C201.116 185.195 194.715 178.878 188.347 172.53C155.452 139.739 122.565 106.939 89.6776 74.1398C89.4132 73.8761 89.182 73.5763 88.9357 73.293H97.079C97.416 73.7028 97.7198 74.1443 98.093 74.5165C134.073 110.405 170.057 146.288 206.047 182.166C206.497 182.613 207.015 182.993 207.502 183.404V191.525Z" fill="#231F20"/>
</g>
<mask id="mask8_0_7" style="mask-type:luminance" maskUnits="userSpaceOnUse" x="1" y="88" width="135" height="109">
<path fill-rule="evenodd" clip-rule="evenodd" d="M1.46606 184.055L11.4485 196.293L135.901 95.3058L119.49 88.293" fill="white"/>
</mask>
<g mask="url(#mask8_0_7)">
<path fill-rule="evenodd" clip-rule="evenodd" d="M-17.2522 89.5342C-11.2878 95.444 -5.30837 101.339 0.637848 107.267C31.9224 138.454 63.1994 169.65 94.4748 200.845C94.8178 201.187 95.1261 201.561 95.451 201.92H87.3076C86.9722 201.51 86.6684 201.068 86.2952 200.697C52.1924 166.68 18.0851 132.671 -16.0267 98.6642C-16.3999 98.292 -16.8427 97.9891 -17.2522 97.6546C-17.2522 94.9483 -17.2522 92.2405 -17.2522 89.5342Z" fill="#231F20"/>
</g>
<mask id="mask9_0_7" style="mask-type:luminance" maskUnits="userSpaceOnUse" x="1" y="88" width="135" height="109">
<path fill-rule="evenodd" clip-rule="evenodd" d="M1.46606 184.055L11.4485 196.293L135.901 95.3058L119.49 88.293L1.46606 184.055Z" fill="white"/>
</mask>
<g mask="url(#mask9_0_7)">
<path fill-rule="evenodd" clip-rule="evenodd" d="M207.502 175.285C207.182 174.998 206.848 174.727 206.544 174.424C173.056 141.035 139.568 107.644 106.085 74.2488C105.782 73.9459 105.51 73.6129 105.222 73.2935H113.366C113.701 73.7033 114.005 74.1448 114.378 74.517C145.005 105.068 175.639 135.614 206.276 166.155C206.648 166.527 207.092 166.83 207.502 167.164V175.285Z" fill="#231F20"/>
</g>
<mask id="mask10_0_7" style="mask-type:luminance" maskUnits="userSpaceOnUse" x="1" y="88" width="135" height="109">
<path fill-rule="evenodd" clip-rule="evenodd" d="M1.46606 184.055L11.4485 196.293L135.901 95.3058L119.49 88.293" fill="white"/>
</mask>
<g mask="url(#mask10_0_7)">
<path fill-rule="evenodd" clip-rule="evenodd" d="M-17.2522 105.774C-16.9681 106.02 -16.6689 106.249 -16.403 106.514C15.208 138.032 46.8159 169.55 78.4223 201.072C78.6867 201.337 78.9179 201.636 79.1642 201.919H71.0209C70.6854 201.511 70.3817 201.069 70.0099 200.697C41.3366 172.094 12.6572 143.497 -16.0267 114.904C-16.3999 114.532 -16.8427 114.229 -17.2522 113.895C-17.2522 111.189 -17.2522 108.481 -17.2522 105.774Z" fill="#231F20"/>
</g>
<mask id="mask11_0_7" style="mask-type:luminance" maskUnits="userSpaceOnUse" x="1" y="88" width="135" height="109">
<path fill-rule="evenodd" clip-rule="evenodd" d="M1.46606 184.055L11.4485 196.293L135.901 95.3058L119.49 88.293L1.46606 184.055Z" fill="white"/>
</mask>
<g mask="url(#mask11_0_7)">
<path fill-rule="evenodd" clip-rule="evenodd" d="M207.502 159.044C201.385 152.979 195.254 146.929 189.154 140.847C166.888 118.654 144.631 96.4507 122.372 74.2488C122.068 73.9459 121.796 73.6129 121.509 73.2935C124.223 73.2935 126.939 73.2935 129.653 73.2935C129.988 73.7018 130.292 74.1433 130.665 74.5155C155.863 99.6543 181.068 124.787 206.276 149.914C206.65 150.286 207.092 150.589 207.502 150.923V159.044Z" fill="#231F20"/>
</g>
<mask id="mask12_0_7" style="mask-type:luminance" maskUnits="userSpaceOnUse" x="1" y="88" width="135" height="109">
<path fill-rule="evenodd" clip-rule="evenodd" d="M1.46606 184.055L11.4485 196.293L135.901 95.3058L119.49 88.293" fill="white"/>
</mask>
<g mask="url(#mask12_0_7)">
<path fill-rule="evenodd" clip-rule="evenodd" d="M-17.2522 122.015C-11.1352 128.08 -5.00313 134.132 1.09874 140.213C21.334 160.378 41.5602 180.555 61.788 200.73C62.1673 201.11 62.5148 201.523 62.8775 201.919H54.7341C54.3987 201.51 54.0949 201.069 53.7232 200.697C30.5155 177.547 7.30487 154.402 -15.9118 131.263C-16.3244 130.853 -16.8034 130.509 -17.2522 130.136C-17.2522 127.429 -17.2522 124.721 -17.2522 122.015Z" fill="#231F20"/>
</g>
<mask id="mask13_0_7" style="mask-type:luminance" maskUnits="userSpaceOnUse" x="1" y="88" width="135" height="109">
<path fill-rule="evenodd" clip-rule="evenodd" d="M1.46606 184.055L11.4485 196.293L135.901 95.3058L119.49 88.293" fill="white"/>
</mask>
<g mask="url(#mask13_0_7)">
<path fill-rule="evenodd" clip-rule="evenodd" d="M-17.2522 138.256C-17.0074 138.465 -16.749 138.658 -16.5208 138.884C4.30834 159.65 25.136 180.419 45.9606 201.191C46.1873 201.417 46.3822 201.676 46.5907 201.919H38.4474C38.1512 201.55 37.8852 201.147 37.5513 200.813C19.6582 182.961 1.7606 165.112 -16.143 147.271C-16.4785 146.937 -16.8805 146.673 -17.2522 146.376C-17.2522 143.67 -17.2522 140.962 -17.2522 138.256Z" fill="#231F20"/>
</g>
<mask id="mask14_0_7" style="mask-type:luminance" maskUnits="userSpaceOnUse" x="1" y="88" width="135" height="109">
<path fill-rule="evenodd" clip-rule="evenodd" d="M1.46606 184.055L11.4485 196.293L135.901 95.3058L119.49 88.293" fill="white"/>
</mask>
<g mask="url(#mask14_0_7)">
<path fill-rule="evenodd" clip-rule="evenodd" d="M-17.2522 154.497C-11.4918 160.206 -5.72242 165.905 0.0258465 171.626C9.839 181.398 19.6401 191.182 29.4426 200.965C29.7464 201.268 30.0184 201.601 30.304 201.919H22.1606C21.9007 201.587 21.6725 201.224 21.3763 200.929C8.83714 188.414 -3.70811 175.904 -16.2594 163.399C-16.5556 163.104 -16.9198 162.876 -17.2522 162.617C-17.2522 159.911 -17.2522 157.203 -17.2522 154.497Z" fill="#231F20"/>
</g>
<mask id="mask15_0_7" style="mask-type:luminance" maskUnits="userSpaceOnUse" x="1" y="88" width="135" height="109">
<path fill-rule="evenodd" clip-rule="evenodd" d="M1.46606 184.055L11.4485 196.293L135.901 95.3058L119.49 88.293" fill="white"/>
</mask>
<g mask="url(#mask15_0_7)">
<path fill-rule="evenodd" clip-rule="evenodd" d="M-17.2522 170.737C-13.2886 174.655 -9.30829 178.556 -5.36429 182.493C1.1078 188.956 7.55874 195.443 14.0172 201.918H5.87536C5.65474 201.624 5.46736 201.299 5.21047 201.041C-1.97789 193.862 -9.17229 186.688 -16.3727 179.52C-16.6296 179.264 -16.9575 179.077 -17.2522 178.857C-17.2522 176.151 -17.2522 173.443 -17.2522 170.737Z" fill="#231F20"/>
</g>
<path fill-rule="evenodd" clip-rule="evenodd" d="M137.123 94.6119L181.123 58.1758L161.285 105.176L137.123 94.6119Z" fill="#231F20"/>
<path fill-rule="evenodd" clip-rule="evenodd" d="M185.208 33.8868L119.293 87.3687L91.2079 75.3341L120.93 6.36865L185.208 33.8868Z" fill="#231F20"/>
<path fill-rule="evenodd" clip-rule="evenodd" d="M2.68447 183.7L11.7186 194.779L134.665 94.9902L119.819 88.6454L2.68447 183.7ZM11.4994 196.899L0.55896 183.482L119.574 86.8994L137.559 94.5861L136.59 95.3731L11.4994 196.899Z" fill="#231F20"/>
<path fill-rule="evenodd" clip-rule="evenodd" d="M225.781 0.168945L183.603 34.7564L188.908 37.058L178.624 61.1689L236.624 13.6055L225.781 0.168945ZM190.876 36.2666L186.468 34.3562L225.565 2.29385L234.517 13.3881L182.41 56.1187L190.876 36.2666Z" fill="#231F20"/>
<path fill-rule="evenodd" clip-rule="evenodd" d="M35.3916 48.3045C24.7754 48.3045 16.1398 56.9509 16.1398 67.5785C16.1398 78.2061 24.7754 86.851 35.3916 86.851C46.0078 86.851 54.6434 78.2061 54.6434 67.5785C54.6434 56.9509 46.0078 48.3045 35.3916 48.3045ZM35.3916 88.3576C23.9461 88.3576 14.6348 79.0347 14.6348 67.5785C14.6348 56.1192 23.9461 46.7979 35.3916 46.7979C46.837 46.7979 56.1484 56.1192 56.1484 67.5785C56.1484 79.0347 46.837 88.3576 35.3916 88.3576Z" fill="#231F20"/>
<path fill-rule="evenodd" clip-rule="evenodd" d="M120.324 152.734L112.02 246.145L191.721 143.92L120.324 152.734ZM110.068 251.097L118.932 151.386L119.537 151.313L195.143 141.981L110.068 251.097Z" fill="#231F20"/>
</g>
</svg>
