<svg width="223" height="183" viewBox="0 0 223 183" fill="none" xmlns="http://www.w3.org/2000/svg">
<g opacity="0.37207">
<path d="M139 102L153 148" stroke="#020303"/>
<path d="M143 102L157 148" stroke="#020303"/>
<path d="M148 100L162 146" stroke="#020303"/>
<path d="M152 98L166 144" stroke="#020303"/>
<path d="M156 97L170 143" stroke="#020303"/>
<path d="M161 96L175 142" stroke="#020302"/>
<path d="M165 94L179 140" stroke="#020302"/>
<path d="M170 93L184 139" stroke="#020302"/>
<path d="M173 91L187 137" stroke="#020302"/>
<path d="M177 90L191 136" stroke="#020202"/>
<path d="M182 88L196 134" stroke="#010202"/>
<path d="M187 88L201 134" stroke="#010202"/>
<path d="M192 86L206 132" stroke="#010202"/>
<path d="M195 84L209 130" stroke="#010202"/>
<path fill-rule="evenodd" clip-rule="evenodd" d="M161.076 100.149C163.004 94.6809 164 88.9086 164 82.9943C164 64.207 153.852 47.2215 137.858 38.3173C130.453 34.1913 122.137 32 113.494 32C86.4018 32 64.1706 53.5928 63.0453 80.8432C63.0138 81.5004 63 82.2005 63 82.9943C63 111.168 85.6051 134 113.494 134C123.467 134 133.009 131.074 141.167 125.668C150.355 119.582 157.374 110.614 161.076 100.149ZM137.317 39.3083C152.956 48.0154 162.879 64.6235 162.879 82.9943C162.879 88.7787 161.906 94.4226 160.021 99.7687C156.401 110.001 149.537 118.77 140.552 124.722C132.576 130.008 123.247 132.868 113.494 132.868C86.2241 132.868 64.1206 110.543 64.1206 82.9943C64.1206 82.2174 64.1341 81.535 64.1648 80.8941C65.2652 54.2454 87.0032 33.1317 113.494 33.1317C121.947 33.1317 130.076 35.274 137.317 39.3083Z" fill="#010202"/>
<path d="M18.5521 107L18 106.012L148.448 32L149 32.9881L18.5521 107Z" fill="#010202"/>
<path fill-rule="evenodd" clip-rule="evenodd" d="M179 74.62L174.803 76L150 1.38001L154.197 0L179 74.62Z" fill="#010202"/>
<path fill-rule="evenodd" clip-rule="evenodd" d="M9.50054 59C14.747 59 19 54.7468 19 49.5C19 44.2532 14.747 40 9.50054 40C4.25386 40 0 44.2534 0 49.5C0 54.7466 4.25386 59 9.50054 59ZM9.50054 41.082C14.1495 41.082 17.9181 44.8508 17.9181 49.5C17.9181 54.1492 14.1495 57.918 9.50054 57.918C4.85136 57.918 1.08194 54.149 1.08194 49.5C1.08194 44.851 4.85136 41.082 9.50054 41.082Z" fill="#010202"/>
<path fill-rule="evenodd" clip-rule="evenodd" d="M38 79C38 82.3136 35.3136 85 32 85C28.6864 85 26 82.3136 26 79C26 75.6864 28.6864 73 32 73C35.3136 73 38 75.6864 38 79Z" fill="#010202"/>
<path fill-rule="evenodd" clip-rule="evenodd" d="M60 50.5C60 57.4041 54.403 63 47.5 63C40.5959 63 35 57.4041 35 50.5C35 43.5959 40.5959 38 47.5 38C54.403 38 60 43.5959 60 50.5Z" fill="#010202"/>
<path fill-rule="evenodd" clip-rule="evenodd" d="M119 183L223 125.197L153.075 96L119 183ZM220.43 125.341L121.177 180.506L153.696 97.4769L220.43 125.341Z" fill="#010202"/>
<path fill-rule="evenodd" clip-rule="evenodd" d="M161 100.559C157.442 111.066 150.705 119.976 142 126L152.846 97L161 100.559Z" fill="#010202"/>
</g>
</svg>
