<svg width="222" height="233" viewBox="0 0 222 233" fill="none" xmlns="http://www.w3.org/2000/svg">
<g opacity="0.400065">
<path fill-rule="evenodd" clip-rule="evenodd" d="M220.973 73.0768C220.973 92.4062 205.079 108.077 185.473 108.077C165.867 108.077 149.973 92.4062 149.973 73.0768C149.973 53.7473 165.867 38.0768 185.473 38.0768C205.079 38.0768 220.973 53.7473 220.973 73.0768Z" fill="#231F20"/>
<path fill-rule="evenodd" clip-rule="evenodd" d="M220.381 148.41L139.382 3.4104L58.381 148.41H220.381Z" fill="#C5CEBD"/>
<path fill-rule="evenodd" clip-rule="evenodd" d="M57.015 149.044H221.015L139.016 0.0444336L57.015 149.044ZM59.5812 147.523L139.016 3.18567L218.449 147.523H59.5812Z" fill="#231F20"/>
<path fill-rule="evenodd" clip-rule="evenodd" d="M185.589 109.876C205.471 109.876 221.589 94.2053 221.589 74.8759C221.589 55.5464 205.471 39.8759 185.589 39.8759C165.707 39.8759 149.589 55.5464 149.589 74.8759C149.589 94.2053 165.707 109.876 185.589 109.876ZM185.589 41.3588C204.628 41.3588 220.064 56.3654 220.064 74.8759C220.064 93.3863 204.628 108.393 185.589 108.393C166.55 108.393 151.114 93.3863 151.114 74.8759C151.114 56.3654 166.55 41.3588 185.589 41.3588Z" fill="#231F20"/>
<path d="M6.54602 19.7287L7.6169 18.6578L220.546 231.587L219.475 232.658L6.54602 19.7287Z" fill="#231F20"/>
<path fill-rule="evenodd" clip-rule="evenodd" d="M78.3074 50.6915C81.8978 50.6915 84.8082 48.0053 84.8082 44.6915C84.8082 41.3777 81.8978 38.6915 78.3074 38.6915C74.7184 38.6915 71.8082 41.378 71.8082 44.6915C71.8082 48.0051 74.7184 50.6915 78.3074 50.6915ZM78.3074 40.1603C81.0189 40.1603 83.2168 42.1889 83.2168 44.6915C83.2168 47.1941 81.0189 49.2227 78.3074 49.2227C75.5973 49.2227 73.3996 47.1939 73.3996 44.6915C73.3996 42.1891 75.5973 40.1603 78.3074 40.1603Z" fill="#231F20"/>
<path fill-rule="evenodd" clip-rule="evenodd" d="M136.373 149.037L85.5268 98.0371L57.3727 149.037H136.373ZM132.722 147.52H59.9386L85.8772 100.534L132.722 147.52Z" fill="#231F20"/>
<path d="M0.161133 108.63L4.92974 64.5848L6.46288 64.7406L1.86811 107.18L42.0262 108.214L21.8965 147.142L60.1611 172.35L59.2942 173.585L19.914 147.642L39.5625 109.645L0.161133 108.63Z" fill="#231F20"/>
<path fill-rule="evenodd" clip-rule="evenodd" d="M121.313 191.052C121.313 199.889 114.373 207.052 105.814 207.052C97.2521 207.052 90.3127 199.889 90.3127 191.052C90.3127 182.216 97.2521 175.052 105.814 175.052C114.373 175.052 121.313 182.216 121.313 191.052Z" fill="#231F20"/>
</g>
</svg>
