<svg width="219" height="170" viewBox="0 0 219 170" fill="none" xmlns="http://www.w3.org/2000/svg">
<g opacity="0.502697">
<path fill-rule="evenodd" clip-rule="evenodd" d="M94.1294 42.7871L48.4279 130.105L42.1997 126.836L87.9012 39.5186L94.1294 42.7871Z" stroke="#010202"/>
<path d="M0.391113 142.807L218.016 18.564" stroke="#010202"/>
<path fill-rule="evenodd" clip-rule="evenodd" d="M112.116 124.696C112.116 149.002 92.4384 168.706 68.1643 168.706C43.8901 168.706 24.2126 149.002 24.2126 124.696C24.2126 100.389 43.8901 80.6853 68.1643 80.6853C92.4384 80.6853 112.116 100.389 112.116 124.696Z" fill="#010202"/>
<path d="M94.2129 89.2478L24.4177 129.092" stroke="#FEFEFE"/>
<path fill-rule="evenodd" clip-rule="evenodd" d="M150.629 72.02L199.791 157.433L193.697 160.949L144.537 75.5362L150.629 72.02Z" stroke="#010202"/>
<path fill-rule="evenodd" clip-rule="evenodd" d="M140.818 98.2905C140.818 103.284 136.774 107.333 131.787 107.333C126.8 107.333 122.757 103.284 122.757 98.2905C122.757 93.2968 126.8 89.2478 131.787 89.2478C136.774 89.2478 140.818 93.2968 140.818 98.2905Z" stroke="#010202"/>
</g>
</svg>
