<svg width="238" height="184" viewBox="0 0 238 184" fill="none" xmlns="http://www.w3.org/2000/svg">
<g opacity="0.402088">
<path d="M86.8785 1.00311L0.87854 96.0031" stroke="#231F20"/>
<path d="M92.554 6.72932L6.55396 101.729" stroke="#201C1D"/>
<path d="M97.7118 10.5237L11.7118 105.524" stroke="#1E1A1C"/>
<path d="M102.421 16.5087L16.4213 111.509" stroke="#1C191A"/>
<path d="M107.838 21.269L21.8379 116.269" stroke="#1B1819"/>
<path d="M113.255 26.0293L27.2545 121.029" stroke="#191718"/>
<path d="M119.637 30.5307L33.6371 125.531" stroke="#181617"/>
<path d="M126.02 35.0322L40.0197 130.032" stroke="#171516"/>
<path d="M130.47 40.0513L44.4703 135.051" stroke="#161415"/>
<path d="M135.887 44.8115L49.887 139.812" stroke="#151314"/>
<path d="M141.562 50.5378L55.5624 145.538" stroke="#151213"/>
<path d="M146.979 55.298L60.979 150.298" stroke="#131111"/>
<path d="M152.396 60.0583L66.3956 155.058" stroke="#110F0F"/>
<path d="M157.812 64.8186L71.8123 159.819" stroke="#0F0D0D"/>
<path d="M163.229 69.5789L77.2289 164.579" stroke="#0C0A0A"/>
<path d="M169.611 74.0803L83.6113 169.08" stroke="#080607"/>
<path d="M175.287 79.8065L89.2869 174.807" stroke="#030303"/>
<path d="M180.703 84.5668L94.7034 179.567" stroke="#010202"/>
<path fill-rule="evenodd" clip-rule="evenodd" d="M12.6383 40.5613H74.6383L63.3391 85.5613L12.6383 40.5613Z" fill="#DFCCC2"/>
<path fill-rule="evenodd" clip-rule="evenodd" d="M12.6383 40.5613H74.6383L63.3391 85.5613L12.6383 40.5613Z" stroke="#010202"/>
<path fill-rule="evenodd" clip-rule="evenodd" d="M166.977 83.6303C186.583 83.6303 202.477 67.7365 202.477 48.1303C202.477 28.5242 186.583 12.6303 166.977 12.6303C147.37 12.6303 131.477 28.5242 131.477 48.1303C131.477 67.7365 147.37 83.6303 166.977 83.6303ZM166.977 13.9631C185.847 13.9631 201.144 29.2603 201.144 48.1303C201.144 67.0004 185.847 82.2975 166.977 82.2975C148.107 82.2975 132.809 67.0004 132.809 48.1303C132.809 29.2603 148.107 13.9631 166.977 13.9631Z" fill="#010202"/>
<path d="M138.261 183.13L136.968 183.449C136.928 183.289 136.861 182.991 136.775 182.569C136.633 181.87 136.491 181.073 136.358 180.194C135.589 175.087 135.47 169.717 136.419 164.675C137.879 156.919 141.695 151.074 148.413 147.999C156.579 144.259 168.6 144.856 185.002 150.52C200.966 156.033 212.919 156.337 221.339 152.287C228.164 149.004 232.462 142.969 234.682 134.94C236.379 128.801 236.69 122.282 236.204 116.455C236.162 115.947 236.117 115.496 236.071 115.108C236.044 114.877 236.024 114.719 236.012 114.641L237.33 114.449C237.343 114.54 237.365 114.71 237.394 114.953C237.441 115.356 237.488 115.821 237.531 116.344C238.029 122.315 237.711 128.98 235.965 135.295C233.651 143.666 229.126 150.019 221.916 153.487C213.137 157.709 200.835 157.396 184.567 151.778C168.459 146.216 156.771 145.636 148.967 149.209C142.687 152.085 139.114 157.557 137.727 164.922C136.81 169.796 136.926 175.024 137.675 179.995C137.804 180.852 137.942 181.626 138.08 182.303C138.162 182.707 138.225 182.988 138.261 183.13Z" fill="#010202"/>
<path fill-rule="evenodd" clip-rule="evenodd" d="M9.38611 120.062L9.80138 113.774L161.386 124.486L160.971 130.774L9.38611 120.062Z" fill="#010202"/>
</g>
</svg>
