<svg width="147" height="26" viewBox="0 0 147 26" fill="none" xmlns="http://www.w3.org/2000/svg">
<path d="M8.612 25.32C7.076 25.32 5.7 24.9467 4.484 24.2C3.28934 23.432 2.34 22.3973 1.636 21.096C0.932003 19.7733 0.580003 18.2693 0.580003 16.584C0.580003 14.8987 0.921336 13.4053 1.604 12.104C2.308 10.7813 3.25734 9.74667 4.452 9C5.64667 8.232 7.00134 7.848 8.516 7.848C9.348 7.848 10.148 7.98667 10.916 8.264C11.7053 8.52 12.4093 8.88267 13.028 9.352C13.6467 9.8 14.1267 10.3013 14.468 10.856C14.8307 11.3893 15.012 11.9333 15.012 12.488L14.052 12.552V1.32H17.348V25H14.052V21H14.692C14.692 21.512 14.5213 22.024 14.18 22.536C13.8387 23.0267 13.38 23.4853 12.804 23.912C12.2493 24.3387 11.5987 24.68 10.852 24.936C10.1267 25.192 9.38 25.32 8.612 25.32ZM9.06 22.472C10.0627 22.472 10.948 22.216 11.716 21.704C12.484 21.192 13.0813 20.4987 13.508 19.624C13.956 18.728 14.18 17.7147 14.18 16.584C14.18 15.4533 13.956 14.4507 13.508 13.576C13.0813 12.68 12.484 11.976 11.716 11.464C10.948 10.952 10.0627 10.696 9.06 10.696C8.05734 10.696 7.172 10.952 6.404 11.464C5.636 11.976 5.028 12.68 4.58 13.576C4.15334 14.4507 3.94 15.4533 3.94 16.584C3.94 17.7147 4.15334 18.728 4.58 19.624C5.028 20.4987 5.636 21.192 6.404 21.704C7.172 22.216 8.05734 22.472 9.06 22.472ZM28.5253 25.32C26.7973 25.32 25.2613 24.9573 23.9173 24.232C22.5946 23.4853 21.5493 22.472 20.7813 21.192C20.0346 19.912 19.6613 18.44 19.6613 16.776C19.6613 15.4533 19.8746 14.248 20.3013 13.16C20.7279 12.072 21.3146 11.1333 22.0613 10.344C22.8293 9.53333 23.7359 8.91467 24.7813 8.488C25.8479 8.04 26.9999 7.816 28.2373 7.816C29.3253 7.816 30.3386 8.02933 31.2773 8.456C32.2159 8.86133 33.0266 9.42667 33.7093 10.152C34.4133 10.8773 34.9466 11.7413 35.3093 12.744C35.6933 13.7253 35.8746 14.8027 35.8533 15.976L35.8213 17.384H22.0933L21.3573 14.76H32.9733L32.4933 15.304V14.536C32.4293 13.832 32.1946 13.2027 31.7893 12.648C31.3839 12.0933 30.8719 11.656 30.2533 11.336C29.6346 11.016 28.9626 10.856 28.2373 10.856C27.0853 10.856 26.1146 11.08 25.3253 11.528C24.5359 11.9547 23.9386 12.5947 23.5333 13.448C23.1279 14.28 22.9253 15.3147 22.9253 16.552C22.9253 17.7253 23.1706 18.7493 23.6613 19.624C24.1519 20.4773 24.8453 21.1387 25.7413 21.608C26.6373 22.0773 27.6719 22.312 28.8453 22.312C29.6773 22.312 30.4453 22.1733 31.1493 21.896C31.8746 21.6187 32.6533 21.1173 33.4853 20.392L35.1493 22.728C34.6373 23.24 34.0079 23.688 33.2613 24.072C32.5359 24.456 31.7573 24.7653 30.9253 25C30.1146 25.2133 29.3146 25.32 28.5253 25.32ZM47.0673 25.32C46.3419 25.32 45.6166 25.2027 44.8913 24.968C44.1873 24.7333 43.5366 24.424 42.9393 24.04C42.3633 23.6347 41.8726 23.1973 41.4673 22.728C41.0833 22.2373 40.8273 21.7467 40.6993 21.256L41.5313 20.808V24.904H38.2353V1.32H41.5313V12.04L41.0193 11.752C41.1259 11.2613 41.3606 10.792 41.7233 10.344C42.0859 9.87467 42.5446 9.45867 43.0993 9.096C43.6753 8.712 44.2939 8.41333 44.9553 8.2C45.6166 7.96533 46.2886 7.848 46.9713 7.848C48.4859 7.848 49.8299 8.22133 51.0033 8.968C52.1766 9.71467 53.1046 10.7493 53.7873 12.072C54.4699 13.3733 54.8113 14.8667 54.8113 16.552C54.8113 18.2373 54.4699 19.7413 53.7873 21.064C53.1259 22.3867 52.2086 23.432 51.0353 24.2C49.8619 24.9467 48.5393 25.32 47.0673 25.32ZM46.5233 22.312C47.5046 22.312 48.3793 22.0667 49.1473 21.576C49.9153 21.064 50.5233 20.3813 50.9713 19.528C51.4193 18.6533 51.6433 17.6613 51.6433 16.552C51.6433 15.464 51.4193 14.4933 50.9713 13.64C50.5446 12.7653 49.9473 12.0827 49.1793 11.592C48.4113 11.1013 47.5259 10.856 46.5233 10.856C45.5206 10.856 44.6353 11.1013 43.8673 11.592C43.0993 12.0827 42.4913 12.7653 42.0433 13.64C41.5953 14.4933 41.3713 15.464 41.3713 16.552C41.3713 17.6613 41.5953 18.6533 42.0433 19.528C42.4913 20.3813 43.0993 21.064 43.8673 21.576C44.6353 22.0667 45.5206 22.312 46.5233 22.312ZM64.7435 25.32C63.1008 25.32 61.6288 24.9467 60.3275 24.2C59.0475 23.432 58.0342 22.3973 57.2875 21.096C56.5408 19.7733 56.1675 18.2693 56.1675 16.584C56.1675 14.8987 56.5408 13.4053 57.2875 12.104C58.0342 10.7813 59.0475 9.74667 60.3275 9C61.6288 8.232 63.1008 7.848 64.7435 7.848C66.3648 7.848 67.8155 8.232 69.0955 9C70.3968 9.74667 71.4208 10.7813 72.1675 12.104C72.9142 13.4053 73.2875 14.8987 73.2875 16.584C73.2875 18.2693 72.9142 19.7733 72.1675 21.096C71.4208 22.3973 70.3968 23.432 69.0955 24.2C67.8155 24.9467 66.3648 25.32 64.7435 25.32ZM64.7435 22.312C65.7462 22.312 66.6422 22.0667 67.4315 21.576C68.2208 21.064 68.8395 20.3813 69.2875 19.528C69.7355 18.6533 69.9488 17.672 69.9275 16.584C69.9488 15.4747 69.7355 14.4933 69.2875 13.64C68.8395 12.7653 68.2208 12.0827 67.4315 11.592C66.6422 11.1013 65.7462 10.856 64.7435 10.856C63.7408 10.856 62.8342 11.112 62.0235 11.624C61.2342 12.1147 60.6155 12.7973 60.1675 13.672C59.7195 14.5253 59.5062 15.496 59.5275 16.584C59.5062 17.672 59.7195 18.6533 60.1675 19.528C60.6155 20.3813 61.2342 21.064 62.0235 21.576C62.8342 22.0667 63.7408 22.312 64.7435 22.312ZM75.679 25V8.2H78.975V11.656L78.399 12.04C78.6123 11.2933 79.0283 10.6107 79.647 9.992C80.2657 9.352 81.0017 8.84 81.855 8.456C82.7083 8.05067 83.583 7.848 84.479 7.848C85.759 7.848 86.8257 8.104 87.679 8.616C88.5323 9.10667 89.1723 9.864 89.599 10.888C90.0257 11.912 90.239 13.2027 90.239 14.76V25H86.943V14.984C86.943 14.024 86.815 13.2347 86.559 12.616C86.303 11.976 85.9083 11.5173 85.375 11.24C84.8417 10.9413 84.1803 10.8133 83.391 10.856C82.751 10.856 82.1643 10.9627 81.631 11.176C81.0977 11.368 80.6283 11.6453 80.223 12.008C79.839 12.3707 79.5297 12.7973 79.295 13.288C79.0817 13.7573 78.975 14.2693 78.975 14.824V25H77.343C77.0657 25 76.7883 25 76.511 25C76.2337 25 75.9563 25 75.679 25ZM99.9743 25.32C98.5876 25.32 97.3183 24.936 96.1663 24.168C95.0356 23.4 94.1289 22.3547 93.4463 21.032C92.7636 19.7093 92.4223 18.216 92.4223 16.552C92.4223 14.8667 92.7636 13.3733 93.4463 12.072C94.1503 10.7493 95.0889 9.71467 96.2623 8.968C97.4569 8.22133 98.7903 7.848 100.262 7.848C101.137 7.848 101.937 7.976 102.662 8.232C103.388 8.488 104.017 8.85067 104.55 9.32C105.105 9.768 105.553 10.2907 105.894 10.888C106.257 11.4853 106.481 12.1253 106.566 12.808L105.83 12.552V8.2H109.158V25H105.83V21L106.598 20.776C106.47 21.352 106.204 21.9173 105.798 22.472C105.414 23.0053 104.913 23.4853 104.294 23.912C103.697 24.3387 103.025 24.68 102.278 24.936C101.553 25.192 100.785 25.32 99.9743 25.32ZM100.838 22.28C101.841 22.28 102.726 22.0347 103.494 21.544C104.262 21.0533 104.86 20.3813 105.286 19.528C105.734 18.6533 105.958 17.6613 105.958 16.552C105.958 15.464 105.734 14.4933 105.286 13.64C104.86 12.7867 104.262 12.1147 103.494 11.624C102.726 11.1333 101.841 10.888 100.838 10.888C99.8569 10.888 98.9823 11.1333 98.2143 11.624C97.4676 12.1147 96.8703 12.7867 96.4223 13.64C95.9956 14.4933 95.7823 15.464 95.7823 16.552C95.7823 17.6613 95.9956 18.6533 96.4223 19.528C96.8703 20.3813 97.4676 21.0533 98.2143 21.544C98.9823 22.0347 99.8569 22.28 100.838 22.28ZM113.104 25V8.2H116.4V25H113.104ZM114.704 4.488C114 4.488 113.456 4.30667 113.072 3.944C112.688 3.58133 112.496 3.06933 112.496 2.408C112.496 1.78933 112.688 1.288 113.072 0.903999C113.478 0.519999 114.022 0.327999 114.704 0.327999C115.408 0.327999 115.952 0.509333 116.336 0.872C116.72 1.23467 116.912 1.74667 116.912 2.408C116.912 3.02667 116.71 3.528 116.304 3.912C115.92 4.296 115.387 4.488 114.704 4.488ZM120.267 25V8.2H123.595V13.48L123.275 12.2C123.509 11.3893 123.904 10.6533 124.459 9.992C125.035 9.33067 125.685 8.808 126.411 8.424C127.157 8.04 127.925 7.848 128.715 7.848C129.077 7.848 129.419 7.88 129.739 7.944C130.08 8.008 130.347 8.08267 130.539 8.168L129.675 11.752C129.419 11.6453 129.131 11.56 128.811 11.496C128.512 11.4107 128.213 11.368 127.915 11.368C127.339 11.368 126.784 11.4853 126.251 11.72C125.739 11.9333 125.28 12.2427 124.875 12.648C124.491 13.032 124.181 13.4907 123.947 14.024C123.712 14.536 123.595 15.1013 123.595 15.72V25H120.267ZM139.094 25.32C137.366 25.32 135.83 24.9573 134.486 24.232C133.163 23.4853 132.118 22.472 131.35 21.192C130.603 19.912 130.23 18.44 130.23 16.776C130.23 15.4533 130.443 14.248 130.87 13.16C131.297 12.072 131.883 11.1333 132.63 10.344C133.398 9.53333 134.305 8.91467 135.35 8.488C136.417 8.04 137.569 7.816 138.806 7.816C139.894 7.816 140.907 8.02933 141.846 8.456C142.785 8.86133 143.595 9.42667 144.278 10.152C144.982 10.8773 145.515 11.7413 145.878 12.744C146.262 13.7253 146.443 14.8027 146.422 15.976L146.39 17.384H132.662L131.926 14.76H143.542L143.062 15.304V14.536C142.998 13.832 142.763 13.2027 142.358 12.648C141.953 12.0933 141.441 11.656 140.822 11.336C140.203 11.016 139.531 10.856 138.806 10.856C137.654 10.856 136.683 11.08 135.894 11.528C135.105 11.9547 134.507 12.5947 134.102 13.448C133.697 14.28 133.494 15.3147 133.494 16.552C133.494 17.7253 133.739 18.7493 134.23 19.624C134.721 20.4773 135.414 21.1387 136.31 21.608C137.206 22.0773 138.241 22.312 139.414 22.312C140.246 22.312 141.014 22.1733 141.718 21.896C142.443 21.6187 143.222 21.1173 144.054 20.392L145.718 22.728C145.206 23.24 144.577 23.688 143.83 24.072C143.105 24.456 142.326 24.7653 141.494 25C140.683 25.2133 139.883 25.32 139.094 25.32Z" fill="white"/>
</svg>
